<svg width="54" height="12" viewBox="0 0 54 12" fill="none" xmlns="http://www.w3.org/2000/svg">
<path d="M0.204787 9.72079C-0.102406 9.70402 0.349858 9.855 0 9.73757C0.0511988 9.69563 0.110922 9.67047 0.204787 9.72079Z" fill="#0E1249"/>
<path d="M53.0428 9.11786C52.0614 9.48692 50.7388 9.23529 49.6551 9.47853C49.5271 9.49531 49.6807 9.30239 49.3906 9.35272C48.341 9.6379 46.6685 9.54564 45.38 9.35272L45.4568 9.30239C45.2094 9.26884 44.9107 9.42821 44.6547 9.40304C44.6547 9.36949 44.74 9.36111 44.6803 9.31078C44.612 9.41143 44.211 9.35272 44.1 9.41982C43.9977 9.37788 44.0062 9.30239 43.8782 9.26045L43.7246 9.36949C43.3065 9.62113 42.7262 9.32755 42.1545 9.43659C42.1801 9.41143 42.2398 9.39466 42.1972 9.36949C41.2841 9.48692 40.1492 9.38627 39.1423 9.32755C39.185 9.294 39.2361 9.2269 39.1764 9.17658C39.1167 9.28562 38.801 9.294 38.5279 9.27723C38.4255 9.14302 38.05 9.32756 37.7429 9.21851L37.777 9.19335C37.521 9.294 37.4442 9.07592 37.2309 9.19335L37.0943 9.07592C36.9663 9.2269 36.7701 8.93333 36.5653 8.99204V9.0256C36.3776 9.03398 36.2922 8.94172 36.1216 8.93333V8.90816C35.712 8.87461 35.4986 8.74041 35.4816 8.87461C35.3621 8.74041 35.8741 8.89978 35.6864 8.70686C34.3808 8.58104 33.0411 8.28747 31.8123 7.7842C31.6929 7.67516 31.6161 7.61645 31.6075 7.55773C31.471 7.53257 31.1553 7.36481 31.0187 7.36481C31.0614 7.38159 30.9761 7.26416 30.9249 7.22222C30.7542 7.05446 30.6177 7.20545 30.4385 7.00414C30.5494 7.03769 30.6006 7.02091 30.6006 6.9622C30.3532 6.92026 30.1313 6.71895 29.9095 6.55959C29.9521 6.57636 30.0118 6.60152 30.0374 6.55959C29.7388 6.44216 29.679 6.17375 29.4657 6.02277L29.5852 6.04793C29.4231 5.67048 29.3719 6.05632 29.2183 5.7292C29.2865 5.78791 29.2951 5.74597 29.3292 5.74597C29.022 5.55305 28.8257 5.03301 28.6807 4.73105C28.6977 4.74782 28.7148 4.73105 28.7148 4.73105C28.5868 4.38715 28.5527 4.0097 28.4588 3.62386C28.4929 3.48127 28.6465 3.65741 28.6124 3.28835C28.4417 3.30513 28.5953 2.64249 28.3991 2.85219C28.4588 2.51667 28.6721 2.02179 28.7319 1.80371C28.7319 1.96308 28.9708 1.745 28.8769 1.98824C28.9367 1.93791 28.9879 1.89598 29.0476 1.85404C29.0903 1.90436 28.9452 2.02179 29.0476 2.00502C29.0817 1.88759 29.2353 1.54369 29.3292 1.4682C29.3975 1.23334 29.4401 0.922994 29.8071 0.679749C29.6705 0.839117 29.9948 0.772015 29.8924 0.864281C30.0033 0.688137 30.1398 0.511993 30.302 0.352625C30.4385 0.302299 30.3702 0.461665 30.558 0.361012C30.5324 0.327461 30.6177 0.277136 30.6774 0.235197C30.7286 0.226809 31.2747 0.109378 31.343 0.268746C31.4027 0.32746 31.1212 0.319073 31.2748 0.361012C31.5308 0.352624 31.5393 0.29391 31.7953 0.302298V0.319074C31.9659 0.344237 32.2987 0.293909 32.1281 0.193255C32.0086 0.17648 32.1622 0.285522 31.9915 0.226807C32.1195 0.14293 32.4267 0.159706 32.6827 0.201645C32.5889 0.210033 32.5974 0.251972 32.5547 0.293911C32.9216 0.226809 33.2886 0.277135 33.6726 0.33585C33.6982 0.268747 33.4934 0.419728 33.4507 0.369401C33.8944 0.587484 34.4747 0.528767 34.8075 0.822339C34.7392 0.805564 34.8075 0.713298 34.8075 0.730073C35.0293 0.830727 34.9696 0.922994 35.1317 0.948157C35.1232 1.00687 35.3194 1.01526 35.473 1.06559C35.5669 1.06559 35.4986 1.10753 35.3706 1.0572C35.5925 1.09075 36.4543 1.4682 36.8042 1.89598C36.8213 1.85404 37.1541 1.99663 37.2479 2.08051L37.1455 2.11406C37.1882 2.23149 37.4442 2.39086 37.4015 2.46635C37.6831 2.55023 36.608 1.85404 36.9237 2.03018C36.9408 2.14761 37.393 2.24826 37.2394 2.2902C37.4186 2.45796 37.6575 2.55861 37.7343 2.81025C37.7002 2.74314 37.5039 2.74314 37.6319 2.88574C37.8623 3.14576 37.7258 2.93606 37.922 3.14576C37.9647 3.1877 38.0159 3.22964 38.0501 3.27157C38.1354 3.22964 38.2037 3.53998 38.2293 3.38062C38.1866 3.45611 38.5194 3.80839 38.3572 3.84194H38.2293C38.2975 3.98454 38.4511 4.01809 38.5535 4.10196C38.5535 4.12713 38.545 4.16907 38.5194 4.16907C38.7071 4.11874 38.6388 4.50458 38.8266 4.63039C38.8607 4.94913 39.0228 5.41885 38.9204 5.5866C39.0143 5.82146 39.0996 6.03954 39.057 6.32473C39.0399 6.26601 39.0314 6.19052 38.9972 6.17375C38.9375 6.34989 38.9972 6.39183 39.0143 6.5512C38.9887 6.51765 38.8778 6.8951 38.7754 7.07124C38.7924 7.31449 38.8948 7.25577 38.9546 7.29771C38.7327 7.47385 38.8692 8.01906 38.5791 8.22037C38.5962 8.1281 38.6474 7.85969 38.5194 8.02745C38.2719 8.15326 38.4511 8.48878 38.1781 8.75719H38.3572C38.2036 8.85784 38.0927 9.26045 37.9988 9.13463C37.9732 9.27723 37.6575 9.41143 37.8026 9.49531C37.2906 9.8476 36.625 10.4431 36.1728 10.3341C36.1045 10.3928 35.9082 10.4431 35.9765 10.5018C36.1386 10.527 36.1301 10.3676 36.2069 10.4012C36.1386 10.4347 36.1386 10.4767 36.1386 10.5018C35.9509 10.5438 35.8229 10.5857 35.9338 10.4096C35.5328 10.4515 35.6352 10.7954 35.1147 10.8793C35.1147 10.8122 35.0805 10.8038 34.9355 10.8457L34.6795 11.0135C34.3552 11.0554 34.4661 10.9128 34.4405 10.8122C34.2784 10.8625 34.0651 10.8961 34.0053 10.9799L33.7835 10.8793C33.9456 10.9548 33.6555 10.9632 33.5787 10.9967L33.6555 10.9632C33.6555 10.9632 33.4251 10.9716 33.3312 10.9967C33.3653 11.0554 33.5616 11.0638 33.6811 11.0722C33.5957 11.1309 33.4592 11.1309 33.3483 11.198C33.3739 11.089 33.0582 11.1561 32.9216 11.1477C32.768 11.1393 32.751 11.2484 32.7083 11.2484C32.7083 11.198 32.4523 11.2484 32.5718 11.1729C32.623 11.1561 32.6998 11.2148 32.7851 11.1645C32.6827 11.1309 32.6827 11.0387 32.4779 11.1225C32.3243 11.1813 32.5291 11.3238 32.2219 11.2735C32.2987 11.24 32.3158 11.198 32.3755 11.1645L32.0939 11.1225V11.2148C32.0513 11.1896 32.0768 11.1813 32.0512 11.1729C31.9744 11.2735 31.6246 11.2232 31.5649 11.3322C31.4283 11.349 31.2662 11.2819 31.1297 11.2735H31.1553C30.9846 11.2148 30.7713 11.2651 30.6348 11.3322V11.3155C30.5494 11.3155 30.3361 11.3322 30.2337 11.391C30.0033 11.3322 30.1398 11.0387 29.8924 11.1729C29.662 11.1813 29.5425 11.3574 29.6364 11.4161C29.2183 11.3658 28.7575 11.5419 28.365 11.4161C28.3052 11.4581 28.3479 11.4748 28.2199 11.5084C27.614 11.4916 26.9399 11.6677 26.4535 11.5084C26.6242 11.4664 26.4535 11.4161 26.4535 11.3574C26.3085 11.4497 26.2743 11.2735 26.2317 11.4245C26.2487 11.5084 26.2317 11.5503 26.4109 11.5755C26.0525 11.6342 25.4978 11.651 25.293 11.5755C25.3954 11.609 25.3186 11.6426 25.2418 11.6677C25.2674 11.5335 24.9943 11.5168 24.7981 11.5755L24.7725 11.6594L24.636 11.5755C24.5592 11.6006 24.5592 11.7516 24.3544 11.6761C24.3458 11.6426 24.3288 11.609 24.2946 11.5923C24.0898 11.6677 23.7997 11.7852 23.5693 11.7265L23.3816 11.609C23.2877 11.6258 23.1256 11.7013 23.2963 11.7348C22.9037 11.6761 22.6563 11.6677 22.5283 11.5671C21.8712 11.8355 20.8985 11.8607 20.1219 11.8607L20.1475 11.802C19.9342 11.7432 20.0366 11.911 19.8916 11.8691C19.9598 11.8103 19.7294 11.7432 19.8916 11.6677C19.5929 11.609 19.5076 11.7768 19.3113 11.8103C19.2857 11.8942 19.4649 11.76 19.4308 11.8607C19.3966 11.8858 19.0126 11.802 18.97 11.9278C18.8932 11.8774 18.9529 11.7936 18.9956 11.7432L18.8164 11.802C18.5945 11.6594 19.3198 11.5419 19.0894 11.3658L18.9188 11.3826C18.7566 11.2567 19.3625 11.2316 18.9444 11.198C18.7652 11.2567 18.6031 11.4413 18.7737 11.4916C18.3897 11.5252 18.603 11.7852 18.1849 11.7768C18.074 11.7097 18.5092 11.76 18.4324 11.6594C18.2361 11.5587 18.0484 11.7181 17.8692 11.6845C18.0569 11.7348 17.9033 11.8523 17.7753 11.8774C17.5705 11.8187 17.9119 11.76 17.6132 11.7516C17.562 11.8187 17.2889 11.8774 17.5279 11.9194C17.4169 12.0787 17.2207 11.8774 17.0585 11.9949C16.9647 11.8858 17.3657 11.7348 17.0415 11.6761C17.0927 11.7852 16.6404 11.8187 16.8111 11.9865C16.6831 11.9529 16.6746 11.8691 16.7599 11.802C16.5807 11.7348 16.3162 11.9949 16.2564 11.7852L16.1967 11.8942C16.137 11.8607 16.0602 11.8355 15.9663 11.7684C15.8042 11.7684 15.4458 11.911 15.4629 11.7432C15.4117 11.76 15.0447 11.7432 15.1813 11.8607C15.4117 11.9362 15.4458 11.7768 15.5652 11.9362C15.4031 11.8103 15.2325 11.9445 15.1045 11.9865L15.0874 11.9194C15.0106 11.9445 14.8314 11.9194 14.7802 11.9949C14.8399 11.9613 14.8143 11.911 14.7461 11.8942L14.6607 11.9949C14.345 12.0368 14.5925 11.8187 14.2767 11.8439L14.5157 11.7684C14.4645 11.7852 14.3621 11.6929 14.2085 11.7181C14.1488 11.8103 14.0378 11.911 13.9866 11.9781C13.8074 12.0116 13.9098 11.8774 13.7392 11.9613L13.9696 11.8607C13.9696 11.8607 13.8245 11.7097 13.5856 11.7013C13.432 11.7265 13.2016 11.8523 13.432 11.9026C13.3125 11.9026 13.1504 11.8439 13.2442 11.7768C12.9797 11.802 13.2784 11.8774 13.048 11.9194C12.9541 11.8607 12.664 11.76 12.4933 11.6677L12.7408 11.5252H12.5787C12.792 11.4077 12.4763 11.4245 12.5957 11.2987C12.4848 11.2735 12.3568 11.3155 12.2544 11.3406C12.5616 11.5503 11.8875 11.609 11.9728 11.7936C11.5376 11.8271 11.7168 11.3322 11.256 11.6006C11.3243 11.651 11.111 11.7852 11.384 11.7432C11.111 11.7097 11.1878 11.9194 10.872 11.8271C11.111 11.76 10.6246 11.6258 10.9744 11.5335C10.9488 11.5923 11.1622 11.5923 11.2134 11.5755C11.1024 11.5 11.2475 11.391 10.9659 11.3742C10.7952 11.3826 10.5648 11.3742 10.5904 11.4748C10.5904 11.5839 10.8464 11.4748 10.7355 11.5755C10.3942 11.6006 10.3515 11.4329 10.1979 11.6174C10.4112 11.6174 10.4624 11.7265 10.4539 11.7936L10.2064 11.8271L10.2577 11.76C9.86513 11.6929 10.1296 11.8858 9.75419 11.8439L9.58353 11.6929C9.68592 11.5839 10.1382 11.7768 10.0785 11.5839C9.83099 11.5671 9.73713 11.651 9.50673 11.5839C9.55793 11.5671 9.63472 11.5671 9.68592 11.5587C9.60059 11.5503 9.5238 11.2819 9.15687 11.4077C8.96914 11.4581 9.10568 11.4748 9.09715 11.5503C8.69609 11.5503 8.56808 11.6174 8.31209 11.609C8.37182 11.4664 7.85984 11.5671 8.14997 11.4413C8.27796 11.5335 8.85822 11.5587 9.00328 11.4413C8.86675 11.2651 9.319 11.4832 9.41287 11.3155C9.08861 11.2903 9.12273 11.1225 9.07153 11.0135C8.9862 10.9967 8.89235 11.0387 8.84115 11.0554C8.79848 11.1561 8.90942 11.1645 8.90942 11.2651C8.55102 11.2148 8.20969 11.2484 8.00489 11.3406C7.88543 11.2819 7.93663 11.1813 8.07316 11.1813C7.6465 11.1813 7.19425 11.1225 6.79319 11.0638C7.04065 11.2484 6.34094 11.0638 6.50307 11.2232C6.71639 11.2819 6.89559 11.4161 6.76759 11.4748C6.63106 11.4497 6.77612 11.3993 6.72492 11.3658C6.54573 11.4413 6.46893 11.198 6.28974 11.3238C6.68226 11.2987 6.38361 11.1309 6.46894 11.0051C6.17881 11.0554 6.486 10.9128 6.21294 10.8877C5.93135 10.938 5.58149 10.9548 5.26577 10.9548C4.89031 10.787 4.28446 10.8541 3.9346 10.8206C3.76394 10.7367 3.90046 10.6025 3.7042 10.5522C3.47381 10.527 3.85779 10.7367 3.525 10.6193L3.55914 10.5941C3.44821 10.6193 2.94476 10.418 2.81676 10.6109L2.94475 10.4683C2.88502 10.4431 2.81675 10.4683 2.76555 10.4851C2.76555 10.4347 2.70582 10.376 2.80822 10.3593C2.61196 10.225 2.3645 10.3173 2.13411 10.3005L2.27064 10.4096C1.86958 10.4347 1.62212 10.3005 1.23813 10.2754L1.26373 10.1831L1.03333 10.2083C1.10159 10.1244 0.905341 10.0405 0.777344 10.0992L1.39172 9.96503C1.54531 10.0405 1.19546 10.0489 1.28932 10.1579C1.36612 10.2502 1.71598 10.2754 1.78425 10.1999C1.65625 10.1663 1.63919 10.1915 1.53679 10.1999C1.51119 10.0657 1.71598 10.0992 1.82692 10.0321C1.75865 10.0321 1.66478 9.97342 1.63919 10.0154C1.78425 9.97342 1.92078 9.99019 2.15118 10.0154C1.98905 10.0489 2.22797 10.1076 2.15971 10.1328C2.19384 10.0237 2.4157 10.0154 2.6973 10.0825C2.88503 10.2418 3.23488 10.0657 3.55914 10.1412C3.41408 10.2418 3.23488 10.3089 3.02155 10.3341C3.21781 10.418 3.25194 10.3593 3.4482 10.4431C3.55914 10.3676 3.64447 10.2502 3.91753 10.2334V10.3173C4.17352 10.3005 4.18205 10.1747 4.48925 10.2334C5.0183 10.3257 5.56442 10.3844 5.96548 10.4431V10.527C6.21294 10.3676 6.73347 10.527 7.04066 10.4683C7.55265 10.5941 8.16703 10.4767 8.42302 10.636C9.3446 10.636 10.1467 10.6193 11.0939 10.6864L10.9318 10.8038C11.1024 10.7199 11.0427 10.8793 11.2048 10.8709C11.0171 10.7619 11.4438 10.7535 11.5632 10.6864C11.9813 10.8038 12.5275 10.7115 12.9029 10.636V10.7199C13.2954 10.5689 13.7477 10.7199 14.217 10.7619C14.2682 10.7954 14.3535 10.8793 14.4986 10.8709C14.7546 10.7367 14.8911 10.7451 15.2666 10.6696C15.5397 10.6696 15.9834 10.7199 16.265 10.7703C17.2975 10.5857 18.3556 10.7032 19.4222 10.5773L19.499 10.678C20.5401 10.4515 21.82 10.6277 22.7075 10.4935L22.6222 10.6696C22.9037 10.7115 23.2536 10.6109 23.1853 10.4851C23.4669 10.527 23.8765 10.3844 24.0643 10.5186C24.3544 10.5438 24.4141 10.4264 24.6445 10.4012C25.2162 10.4515 25.4296 10.4264 25.9671 10.376H25.8306C25.7709 10.4096 25.7709 10.4851 25.9074 10.4851C26.1037 10.4347 26.6498 10.5018 26.4365 10.3089C27.0167 10.4012 27.7762 10.1663 28.3394 10.3005C28.2882 10.2502 28.4332 10.2334 28.4844 10.1915C28.9879 10.1663 29.5254 10.2586 29.9265 10.1496C30.0118 10.1747 29.7985 10.2502 30.0118 10.2502C30.1313 10.225 30.0119 10.1747 30.1569 10.1412C30.9676 9.99858 31.8294 10.1831 32.5462 10.116C33.8091 9.93148 35.1147 9.76372 36.0704 9.21851V9.26045C36.3093 8.95849 36.8981 8.92494 36.9151 8.5391C37.009 8.51394 37.1285 8.32102 37.1541 8.41329C37.2479 8.16165 37.6831 7.80937 37.6831 7.3732C37.6661 7.40675 37.6661 7.43191 37.6746 7.47385C37.8965 7.11318 37.8367 6.72734 37.9135 6.29957C37.9306 6.3415 37.9477 6.42538 37.9818 6.44216C38.0671 6.26601 37.7941 6.03954 37.9903 5.9305C37.9733 5.82985 37.8794 5.87179 37.8964 5.9305C37.8708 4.93235 37.2906 3.91743 36.5568 3.22964C36.1045 2.62572 36.7701 2.95284 36.2154 2.65927C36.1984 2.60055 36.1386 2.69282 36.1557 2.65927C35.9424 2.55861 35.9936 2.25665 35.7973 2.24826C35.7888 2.38247 35.6693 2.24826 35.6181 2.29859C35.2597 1.97986 35.217 1.83726 34.8245 1.75338L34.8757 1.71145C34.3894 1.68628 33.9285 1.41787 33.5019 1.50175C32.3158 1.15785 31.0529 1.04881 30.302 1.51853C29.5511 1.96308 29.3121 2.96961 29.5169 3.99292C29.6791 5.02462 30.2934 5.83824 31.2236 6.4086C32.1366 6.98736 33.2886 7.31448 34.5173 7.65C35.0549 7.95196 35.1061 7.96034 35.7632 8.01067C35.729 8.03583 35.6864 8.02745 35.729 8.061C35.7888 7.93518 36.1813 8.13649 36.2666 8.01906C37.1882 8.20359 38.05 8.29586 39.0143 8.4049C38.8607 8.4049 38.7668 8.50555 38.9546 8.51394L39.1508 8.44684L39.1764 8.48877C39.3044 8.48877 39.4495 8.43006 39.3215 8.37135C41.7449 8.50555 44.1512 8.84106 46.5661 8.77396C47.1378 8.82429 47.957 8.7488 48.5799 8.69847C50.4316 8.82429 52.1126 8.87461 53.9985 8.64814C53.9985 8.64814 53.7766 9.01721 53.0001 9.14302L53.0428 9.11786Z" fill="#0E1249"/>
<path d="M0.569441 9.76318C0.62064 9.83867 0.833965 9.91416 0.646236 9.97288C0.637703 9.90578 0.535309 9.8219 0.569441 9.76318Z" fill="#0E1249"/>
<path d="M6.22349 11.1636C6.22349 11.1636 6.30029 11.1971 6.31735 11.2139C6.24909 11.2139 6.17229 11.2642 6.12109 11.2223C6.19789 11.2223 6.18935 11.1887 6.22349 11.1636Z" fill="#0E1249"/>
<path d="M7.69775 11.332C7.67215 11.3907 7.34789 11.4159 7.16016 11.4075L7.69775 11.332Z" fill="#0E1249"/>
<path d="M9.06211 11.6753C9.18158 11.734 9.14745 11.7592 8.98532 11.7508C8.97679 11.7172 9.02798 11.7005 9.06211 11.6753Z" fill="#0E1249"/>
<path d="M9.1725 11.5415C9.28343 11.5415 9.34316 11.5834 9.39436 11.6254C9.39436 11.5751 9.12984 11.6422 9.1725 11.5415Z" fill="#0E1249"/>
<path d="M12.1684 11.868C12.2452 11.868 12.3988 11.8177 12.4671 11.8932C12.3903 11.8428 12.1087 11.9603 12.1684 11.868Z" fill="#0E1249"/>
<path d="M13.5664 11.8179C13.6091 11.8179 13.6261 11.8346 13.6859 11.8179C13.7712 11.8514 13.6859 11.8934 13.6091 11.8934L13.5664 11.8179Z" fill="#0E1249"/>
<path d="M38.4657 8.50439L38.4059 8.66377L38.3633 8.61344L38.4657 8.50439Z" fill="#0E1249"/>
<path d="M32.8616 0.0922669C32.6995 0.0922669 32.7678 0.0167757 32.7422 0C32.8873 0.0251636 32.6739 0.0671033 32.8616 0.0922669Z" fill="#0E1249"/>
<path d="M28.4413 3.33881V3.29688L28.5693 3.31365L28.4413 3.33881Z" fill="#0E1249"/>
</svg>
